<?xml version="1.0" encoding="UTF-8" standalone="no"?>
<!DOCTYPE svg PUBLIC "-//W3C//DTD SVG 1.1//EN"
 "http://www.w3.org/Graphics/SVG/1.1/DTD/svg11.dtd">
<!-- Generated by graphviz version 2.28.0 (20120524.1247)
 -->
<!-- Title: classes_ViCE Pages: 1 -->
<svg width="1440pt" height="292pt"
 viewBox="0.00 0.00 1440.00 292.00" xmlns="http://www.w3.org/2000/svg" xmlns:xlink="http://www.w3.org/1999/xlink">
<g id="graph1" class="graph" transform="scale(1 1) rotate(0) translate(4 288)">
<title>classes_ViCE</title>
<polygon fill="white" stroke="white" points="-4,5 -4,-288 1437,-288 1437,5 -4,5"/>
<!-- 6 -->
<g id="node1" class="node"><title>6</title>
<polygon fill="none" stroke="black" points="186.5,-213 186.5,-283 343.5,-283 343.5,-213 186.5,-213"/>
<text text-anchor="middle" x="265" y="-267.8" font-family="Times,serif" font-size="14.00">vice.plugins.PluginMeta</text>
<polyline fill="none" stroke="black" points="186.5,-260 343.5,-260 "/>
<polyline fill="none" stroke="black" points="186.5,-236 343.5,-236 "/>
<text text-anchor="middle" x="265" y="-220.8" font-family="Times,serif" font-size="14.00"> </text>
</g>
<!-- 7 -->
<g id="node2" class="node"><title>7</title>
<polygon fill="none" stroke="black" points="-0.5,-53 -0.5,-123 174.5,-123 174.5,-53 -0.5,-53"/>
<text text-anchor="middle" x="87" y="-107.8" font-family="Times,serif" font-size="14.00">vice.plugins.ContainerMeta</text>
<polyline fill="none" stroke="black" points="-0.5,-100 174.5,-100 "/>
<polyline fill="none" stroke="black" points="-0.5,-76 174.5,-76 "/>
<text text-anchor="middle" x="87" y="-60.8" font-family="Times,serif" font-size="14.00"> </text>
</g>
<!-- 7&#45;&gt;6 -->
<g id="edge2" class="edge"><title>7&#45;&gt;6</title>
<path fill="none" stroke="black" d="M125.149,-123.397C142.984,-139.432 164.535,-158.741 184,-176 195.027,-185.778 206.942,-196.264 218.153,-206.097"/>
<polygon fill="none" stroke="black" points="215.954,-208.824 225.782,-212.782 220.568,-203.559 215.954,-208.824"/>
</g>
<!-- 8 -->
<g id="node3" class="node"><title>8</title>
<polygon fill="none" stroke="black" points="531,-38 531,-138 677,-138 677,-38 531,-38"/>
<text text-anchor="middle" x="604" y="-122.8" font-family="Times,serif" font-size="14.00">vice.plugins.Container</text>
<polyline fill="none" stroke="black" points="531,-115 677,-115 "/>
<polyline fill="none" stroke="black" points="531,-91 677,-91 "/>
<text text-anchor="start" x="539" y="-75.8" font-family="Times,serif" font-size="14.00">new()</text>
<text text-anchor="start" x="539" y="-60.8" font-family="Times,serif" font-size="14.00">insert()</text>
<text text-anchor="start" x="539" y="-45.8" font-family="Times,serif" font-size="14.00">constraints()</text>
</g>
<!-- 9 -->
<g id="node4" class="node"><title>9</title>
<polygon fill="none" stroke="black" points="695,-53 695,-123 823,-123 823,-53 695,-53"/>
<text text-anchor="middle" x="759" y="-107.8" font-family="Times,serif" font-size="14.00">vice.plugins.Plugin</text>
<polyline fill="none" stroke="black" points="695,-100 823,-100 "/>
<polyline fill="none" stroke="black" points="695,-76 823,-76 "/>
<text text-anchor="start" x="703" y="-60.8" font-family="Times,serif" font-size="14.00">plugins()</text>
</g>
<!-- 10 -->
<g id="node5" class="node"><title>10</title>
<polygon fill="none" stroke="black" points="193,-53 193,-123 337,-123 337,-53 193,-53"/>
<text text-anchor="middle" x="265" y="-107.8" font-family="Times,serif" font-size="14.00">vice.plugins.ItemMeta</text>
<polyline fill="none" stroke="black" points="193,-100 337,-100 "/>
<polyline fill="none" stroke="black" points="193,-76 337,-76 "/>
<text text-anchor="middle" x="265" y="-60.8" font-family="Times,serif" font-size="14.00"> </text>
</g>
<!-- 10&#45;&gt;6 -->
<g id="edge4" class="edge"><title>10&#45;&gt;6</title>
<path fill="none" stroke="black" d="M265,-123.284C265,-146.576 265,-177.602 265,-202.756"/>
<polygon fill="none" stroke="black" points="261.5,-202.783 265,-212.783 268.5,-202.783 261.5,-202.783"/>
</g>
<!-- 11 -->
<g id="node6" class="node"><title>11</title>
<polygon fill="none" stroke="black" points="841,-46 841,-130 985,-130 985,-46 841,-46"/>
<text text-anchor="middle" x="913" y="-114.8" font-family="Times,serif" font-size="14.00">vice.plugins.Item</text>
<polyline fill="none" stroke="black" points="841,-107 985,-107 "/>
<text text-anchor="start" x="849" y="-91.8" font-family="Times,serif" font-size="14.00">ATTRIBUTES : tuple</text>
<polyline fill="none" stroke="black" points="841,-84 985,-84 "/>
<text text-anchor="start" x="849" y="-68.8" font-family="Times,serif" font-size="14.00">from_table()</text>
<text text-anchor="start" x="849" y="-53.8" font-family="Times,serif" font-size="14.00">new()</text>
</g>
<!-- 12 -->
<g id="node7" class="node"><title>12</title>
<polygon fill="none" stroke="black" points="355,-53 355,-123 513,-123 513,-53 355,-53"/>
<text text-anchor="middle" x="434" y="-107.8" font-family="Times,serif" font-size="14.00">vice.plugins.ActionMeta</text>
<polyline fill="none" stroke="black" points="355,-100 513,-100 "/>
<polyline fill="none" stroke="black" points="355,-76 513,-76 "/>
<text text-anchor="middle" x="434" y="-60.8" font-family="Times,serif" font-size="14.00"> </text>
</g>
<!-- 12&#45;&gt;6 -->
<g id="edge6" class="edge"><title>12&#45;&gt;6</title>
<path fill="none" stroke="black" d="M400.196,-123.363C384.018,-139.563 364.24,-159.018 346,-176 335.324,-185.939 323.635,-196.413 312.54,-206.173"/>
<polygon fill="none" stroke="black" points="310.19,-203.578 304.974,-212.8 314.802,-208.844 310.19,-203.578"/>
</g>
<!-- 13 -->
<g id="node8" class="node"><title>13</title>
<polygon fill="none" stroke="black" points="1003.5,-45.5 1003.5,-130.5 1132.5,-130.5 1132.5,-45.5 1003.5,-45.5"/>
<text text-anchor="middle" x="1068" y="-115.3" font-family="Times,serif" font-size="14.00">vice.plugins.Action</text>
<polyline fill="none" stroke="black" points="1003.5,-107.5 1132.5,-107.5 "/>
<polyline fill="none" stroke="black" points="1003.5,-83.5 1132.5,-83.5 "/>
<text text-anchor="start" x="1011.5" y="-68.3" font-family="Times,serif" font-size="14.00">new()</text>
<text text-anchor="start" x="1011.5" y="-53.3" font-family="Times,serif" font-size="14.00">plugins()</text>
</g>
<!-- 15 -->
<g id="node9" class="node"><title>15</title>
<polygon fill="none" stroke="black" points="1150.5,-53 1150.5,-123 1267.5,-123 1267.5,-53 1150.5,-53"/>
<text text-anchor="middle" x="1209" y="-107.8" font-family="Times,serif" font-size="14.00">vice.PropertyDict</text>
<polyline fill="none" stroke="black" points="1150.5,-100 1267.5,-100 "/>
<polyline fill="none" stroke="black" points="1150.5,-76 1267.5,-76 "/>
<text text-anchor="middle" x="1209" y="-60.8" font-family="Times,serif" font-size="14.00"> </text>
</g>
<!-- 20 -->
<g id="node10" class="node"><title>20</title>
<polygon fill="none" stroke="black" points="1286,-1 1286,-175 1432,-175 1432,-1 1286,-1"/>
<text text-anchor="middle" x="1359" y="-159.8" font-family="Times,serif" font-size="14.00">vice.database.Database</text>
<polyline fill="none" stroke="black" points="1286,-152 1432,-152 "/>
<text text-anchor="start" x="1294" y="-136.8" font-family="Times,serif" font-size="14.00">engine : NoneType</text>
<text text-anchor="start" x="1294" y="-121.8" font-family="Times,serif" font-size="14.00">metadata : MetaData</text>
<polyline fill="none" stroke="black" points="1286,-114 1432,-114 "/>
<text text-anchor="start" x="1294" y="-98.8" font-family="Times,serif" font-size="14.00">tables()</text>
<text text-anchor="start" x="1294" y="-83.8" font-family="Times,serif" font-size="14.00">drop_table()</text>
<text text-anchor="start" x="1294" y="-68.8" font-family="Times,serif" font-size="14.00">connect()</text>
<text text-anchor="start" x="1294" y="-53.8" font-family="Times,serif" font-size="14.00">rename_table()</text>
<text text-anchor="start" x="1294" y="-38.8" font-family="Times,serif" font-size="14.00">create_record()</text>
<text text-anchor="start" x="1294" y="-23.8" font-family="Times,serif" font-size="14.00">select()</text>
<text text-anchor="start" x="1294" y="-8.8" font-family="Times,serif" font-size="14.00">create_table()</text>
</g>
</g>
</svg>
