<?xml version="1.0" encoding="UTF-8" standalone="no"?>
<!DOCTYPE svg PUBLIC "-//W3C//DTD SVG 1.1//EN"
 "http://www.w3.org/Graphics/SVG/1.1/DTD/svg11.dtd">
<!-- Generated by graphviz version 2.28.0 (20120524.1247)
 -->
<!-- Title: packages_ViCE Pages: 1 -->
<svg width="920pt" height="188pt"
 viewBox="0.00 0.00 920.00 188.00" xmlns="http://www.w3.org/2000/svg" xmlns:xlink="http://www.w3.org/1999/xlink">
<g id="graph1" class="graph" transform="scale(1 1) rotate(0) translate(4 184)">
<title>packages_ViCE</title>
<polygon fill="white" stroke="white" points="-4,5 -4,-184 917,-184 917,5 -4,5"/>
<!-- 3 -->
<g id="node1" class="node"><title>3</title>
<polygon fill="none" stroke="black" points="142.5,-36 -0.5,-36 -0.5,-0 142.5,-0 142.5,-36"/>
<text text-anchor="middle" x="71" y="-14.3" font-family="Times,serif" font-size="14.00">vice.plugins.rules</text>
</g>
<!-- 4 -->
<g id="node2" class="node"><title>4</title>
<polygon fill="none" stroke="black" points="319.5,-36 160.5,-36 160.5,-0 319.5,-0 319.5,-36"/>
<text text-anchor="middle" x="240" y="-14.3" font-family="Times,serif" font-size="14.00">vice.plugins.actions</text>
</g>
<!-- 5 -->
<g id="node3" class="node"><title>5</title>
<polygon fill="none" stroke="black" points="429.5,-108 326.5,-108 326.5,-72 429.5,-72 429.5,-108"/>
<text text-anchor="middle" x="378" y="-86.3" font-family="Times,serif" font-size="14.00">vice.plugins</text>
</g>
<!-- 14 -->
<g id="node4" class="node"><title>14</title>
<polygon fill="none" stroke="black" points="405,-180 351,-180 351,-144 405,-144 405,-180"/>
<text text-anchor="middle" x="378" y="-158.3" font-family="Times,serif" font-size="14.00">vice</text>
</g>
<!-- 5&#45;&gt;14 -->
<g id="edge2" class="edge"><title>5&#45;&gt;14</title>
<path fill="none" stroke="black" d="M378,-108.303C378,-116.017 378,-125.288 378,-133.888"/>
<polygon fill="black" stroke="black" points="378,-143.896 373.5,-133.896 378,-138.896 378,-133.896 378,-133.896 378,-133.896 378,-138.896 382.5,-133.896 378,-143.896 378,-143.896"/>
</g>
<!-- 16 -->
<g id="node5" class="node"><title>16</title>
<polygon fill="none" stroke="black" points="711.5,-36 564.5,-36 564.5,-0 711.5,-0 711.5,-36"/>
<text text-anchor="middle" x="638" y="-14.3" font-family="Times,serif" font-size="14.00">vice.plugins.items</text>
</g>
<!-- 17 -->
<g id="node6" class="node"><title>17</title>
<polygon fill="none" stroke="black" points="912.5,-36 729.5,-36 729.5,-0 912.5,-0 912.5,-36"/>
<text text-anchor="middle" x="821" y="-14.3" font-family="Times,serif" font-size="14.00">vice.plugins.containers</text>
</g>
<!-- 18 -->
<g id="node7" class="node"><title>18</title>
<polygon fill="none" stroke="black" points="546.5,-36 337.5,-36 337.5,-0 546.5,-0 546.5,-36"/>
<text text-anchor="middle" x="442" y="-14.3" font-family="Times,serif" font-size="14.00">vice.plugins.rules.wtactics</text>
</g>
<!-- 18&#45;&gt;5 -->
<g id="edge4" class="edge"><title>18&#45;&gt;5</title>
<path fill="none" stroke="black" d="M426.18,-36.3034C418.43,-44.7802 408.961,-55.1364 400.476,-64.4174"/>
<polygon fill="black" stroke="black" points="393.638,-71.8957 397.065,-61.4789 397.012,-68.2055 400.386,-64.5154 400.386,-64.5154 400.386,-64.5154 397.012,-68.2055 403.707,-67.5518 393.638,-71.8957 393.638,-71.8957"/>
</g>
<!-- 19 -->
<g id="node8" class="node"><title>19</title>
<polygon fill="none" stroke="black" points="562.5,-108 447.5,-108 447.5,-72 562.5,-72 562.5,-108"/>
<text text-anchor="middle" x="505" y="-86.3" font-family="Times,serif" font-size="14.00">vice.database</text>
</g>
<!-- 18&#45;&gt;19 -->
<g id="edge6" class="edge"><title>18&#45;&gt;19</title>
<path fill="none" stroke="black" d="M457.573,-36.3034C465.202,-44.7802 474.523,-55.1364 482.876,-64.4174"/>
<polygon fill="black" stroke="black" points="489.606,-71.8957 479.572,-67.4731 486.261,-68.1792 482.916,-64.4627 482.916,-64.4627 482.916,-64.4627 486.261,-68.1792 486.261,-61.4523 489.606,-71.8957 489.606,-71.8957"/>
</g>
</g>
</svg>
