<?xml version="1.0" encoding="UTF-8" standalone="no"?>
<!DOCTYPE svg PUBLIC "-//W3C//DTD SVG 1.1//EN"
 "http://www.w3.org/Graphics/SVG/1.1/DTD/svg11.dtd">
<!-- Generated by graphviz version 2.28.0 (20120524.1247)
 -->
<!-- Title: packages_ViCE Pages: 1 -->
<svg width="761pt" height="188pt"
 viewBox="0.00 0.00 761.00 188.00" xmlns="http://www.w3.org/2000/svg" xmlns:xlink="http://www.w3.org/1999/xlink">
<g id="graph1" class="graph" transform="scale(1 1) rotate(0) translate(4 184)">
<title>packages_ViCE</title>
<polygon fill="white" stroke="white" points="-4,5 -4,-184 758,-184 758,5 -4,5"/>
<!-- 3 -->
<g id="node1" class="node"><title>3</title>
<polygon fill="none" stroke="black" points="116.5,-36 -0.5,-36 -0.5,-0 116.5,-0 116.5,-36"/>
<text text-anchor="middle" x="58" y="-14.3" font-family="Times,serif" font-size="14.00">vice.plugins.rules</text>
</g>
<!-- 4 -->
<g id="node2" class="node"><title>4</title>
<polygon fill="none" stroke="black" points="265,-36 135,-36 135,-0 265,-0 265,-36"/>
<text text-anchor="middle" x="200" y="-14.3" font-family="Times,serif" font-size="14.00">vice.plugins.actions</text>
</g>
<!-- 5 -->
<g id="node3" class="node"><title>5</title>
<polygon fill="none" stroke="black" points="355,-108 269,-108 269,-72 355,-72 355,-108"/>
<text text-anchor="middle" x="312" y="-86.3" font-family="Times,serif" font-size="14.00">vice.plugins</text>
</g>
<!-- 14 -->
<g id="node4" class="node"><title>14</title>
<polygon fill="none" stroke="black" points="339,-180 285,-180 285,-144 339,-144 339,-180"/>
<text text-anchor="middle" x="312" y="-158.3" font-family="Times,serif" font-size="14.00">vice</text>
</g>
<!-- 5&#45;&gt;14 -->
<g id="edge2" class="edge"><title>5&#45;&gt;14</title>
<path fill="none" stroke="black" d="M312,-108.303C312,-116.017 312,-125.288 312,-133.888"/>
<polygon fill="black" stroke="black" points="312,-143.896 307.5,-133.896 312,-138.896 312,-133.896 312,-133.896 312,-133.896 312,-138.896 316.5,-133.896 312,-143.896 312,-143.896"/>
</g>
<!-- 16 -->
<g id="node5" class="node"><title>16</title>
<polygon fill="none" stroke="black" points="587,-36 467,-36 467,-0 587,-0 587,-36"/>
<text text-anchor="middle" x="527" y="-14.3" font-family="Times,serif" font-size="14.00">vice.plugins.items</text>
</g>
<!-- 17 -->
<g id="node6" class="node"><title>17</title>
<polygon fill="none" stroke="black" points="753,-36 605,-36 605,-0 753,-0 753,-36"/>
<text text-anchor="middle" x="679" y="-14.3" font-family="Times,serif" font-size="14.00">vice.plugins.containers</text>
</g>
<!-- 18 -->
<g id="node7" class="node"><title>18</title>
<polygon fill="none" stroke="black" points="449,-36 283,-36 283,-0 449,-0 449,-36"/>
<text text-anchor="middle" x="366" y="-14.3" font-family="Times,serif" font-size="14.00">vice.plugins.rules.wtactics</text>
</g>
<!-- 18&#45;&gt;5 -->
<g id="edge4" class="edge"><title>18&#45;&gt;5</title>
<path fill="none" stroke="black" d="M352.652,-36.3034C346.243,-44.6107 338.442,-54.7229 331.394,-63.8593"/>
<polygon fill="black" stroke="black" points="325.195,-71.8957 327.74,-61.2292 328.249,-67.9367 331.303,-63.9778 331.303,-63.9778 331.303,-63.9778 328.249,-67.9367 334.866,-66.7265 325.195,-71.8957 325.195,-71.8957"/>
</g>
<!-- 19 -->
<g id="node8" class="node"><title>19</title>
<polygon fill="none" stroke="black" points="465,-108 373,-108 373,-72 465,-72 465,-108"/>
<text text-anchor="middle" x="419" y="-86.3" font-family="Times,serif" font-size="14.00">vice.database</text>
</g>
<!-- 18&#45;&gt;19 -->
<g id="edge6" class="edge"><title>18&#45;&gt;19</title>
<path fill="none" stroke="black" d="M379.101,-36.3034C385.391,-44.6107 393.047,-54.7229 399.965,-63.8593"/>
<polygon fill="black" stroke="black" points="406.05,-71.8957 396.425,-66.6395 403.031,-67.9094 400.013,-63.9231 400.013,-63.9231 400.013,-63.9231 403.031,-67.9094 403.601,-61.2067 406.05,-71.8957 406.05,-71.8957"/>
</g>
</g>
</svg>
