<?xml version="1.0" encoding="UTF-8" standalone="no"?>
<!DOCTYPE svg PUBLIC "-//W3C//DTD SVG 1.1//EN"
 "http://www.w3.org/Graphics/SVG/1.1/DTD/svg11.dtd">
<!-- Generated by graphviz version 2.28.0 (20120524.1247)
 -->
<!-- Title: classes_ViCE Pages: 1 -->
<svg width="2232pt" height="582pt"
 viewBox="0.00 0.00 2232.00 582.00" xmlns="http://www.w3.org/2000/svg" xmlns:xlink="http://www.w3.org/1999/xlink">
<g id="graph1" class="graph" transform="scale(1 1) rotate(0) translate(4 578)">
<title>classes_ViCE</title>
<polygon fill="white" stroke="white" points="-4,5 -4,-578 2229,-578 2229,5 -4,5"/>
<!-- 6 -->
<g id="node1" class="node"><title>6</title>
<polygon fill="none" stroke="black" points="227,-326 227,-396 417,-396 417,-326 227,-326"/>
<text text-anchor="middle" x="322" y="-380.8" font-family="Times,serif" font-size="14.00">vice.plugins.PluginMeta</text>
<polyline fill="none" stroke="black" points="227,-373 417,-373 "/>
<polyline fill="none" stroke="black" points="227,-349 417,-349 "/>
<text text-anchor="middle" x="322" y="-333.8" font-family="Times,serif" font-size="14.00"> </text>
</g>
<!-- 7 -->
<g id="node2" class="node"><title>7</title>
<polygon fill="none" stroke="black" points="-0.5,-83 -0.5,-153 214.5,-153 214.5,-83 -0.5,-83"/>
<text text-anchor="middle" x="107" y="-137.8" font-family="Times,serif" font-size="14.00">vice.plugins.ContainerMeta</text>
<polyline fill="none" stroke="black" points="-0.5,-130 214.5,-130 "/>
<polyline fill="none" stroke="black" points="-0.5,-106 214.5,-106 "/>
<text text-anchor="middle" x="107" y="-90.8" font-family="Times,serif" font-size="14.00"> </text>
</g>
<!-- 7&#45;&gt;6 -->
<g id="edge2" class="edge"><title>7&#45;&gt;6</title>
<path fill="none" stroke="black" d="M137.348,-153.018C176.054,-196.405 242.963,-271.405 284.727,-318.219"/>
<polygon fill="none" stroke="black" points="282.19,-320.633 291.459,-325.765 287.413,-315.973 282.19,-320.633"/>
</g>
<!-- 8 -->
<g id="node3" class="node"><title>8</title>
<polygon fill="none" stroke="black" points="1081.5,-473 1081.5,-573 1260.5,-573 1260.5,-473 1081.5,-473"/>
<text text-anchor="middle" x="1171" y="-557.8" font-family="Times,serif" font-size="14.00">vice.plugins.Container</text>
<polyline fill="none" stroke="black" points="1081.5,-550 1260.5,-550 "/>
<polyline fill="none" stroke="black" points="1081.5,-526 1260.5,-526 "/>
<text text-anchor="start" x="1089.5" y="-510.8" font-family="Times,serif" font-size="14.00">new()</text>
<text text-anchor="start" x="1089.5" y="-495.8" font-family="Times,serif" font-size="14.00">insert()</text>
<text text-anchor="start" x="1089.5" y="-480.8" font-family="Times,serif" font-size="14.00">constraints()</text>
</g>
<!-- 9 -->
<g id="node4" class="node"><title>9</title>
<polygon fill="none" stroke="black" points="1306.5,-83 1306.5,-153 1459.5,-153 1459.5,-83 1306.5,-83"/>
<text text-anchor="middle" x="1383" y="-137.8" font-family="Times,serif" font-size="14.00">vice.plugins.Plugin</text>
<polyline fill="none" stroke="black" points="1306.5,-130 1459.5,-130 "/>
<polyline fill="none" stroke="black" points="1306.5,-106 1459.5,-106 "/>
<text text-anchor="start" x="1314.5" y="-90.8" font-family="Times,serif" font-size="14.00">plugins()</text>
</g>
<!-- 10 -->
<g id="node5" class="node"><title>10</title>
<polygon fill="none" stroke="black" points="233,-83 233,-153 411,-153 411,-83 233,-83"/>
<text text-anchor="middle" x="322" y="-137.8" font-family="Times,serif" font-size="14.00">vice.plugins.ItemMeta</text>
<polyline fill="none" stroke="black" points="233,-130 411,-130 "/>
<polyline fill="none" stroke="black" points="233,-106 411,-106 "/>
<text text-anchor="middle" x="322" y="-90.8" font-family="Times,serif" font-size="14.00"> </text>
</g>
<!-- 10&#45;&gt;6 -->
<g id="edge4" class="edge"><title>10&#45;&gt;6</title>
<path fill="none" stroke="black" d="M322,-153.018C322,-195.599 322,-268.632 322,-315.584"/>
<polygon fill="none" stroke="black" points="318.5,-315.765 322,-325.765 325.5,-315.765 318.5,-315.765"/>
</g>
<!-- 11 -->
<g id="node6" class="node"><title>11</title>
<polygon fill="none" stroke="black" points="1477.5,-76 1477.5,-160 1642.5,-160 1642.5,-76 1477.5,-76"/>
<text text-anchor="middle" x="1560" y="-144.8" font-family="Times,serif" font-size="14.00">vice.plugins.Item</text>
<polyline fill="none" stroke="black" points="1477.5,-137 1642.5,-137 "/>
<text text-anchor="start" x="1485.5" y="-121.8" font-family="Times,serif" font-size="14.00">ATTRIBUTES : tuple</text>
<polyline fill="none" stroke="black" points="1477.5,-114 1642.5,-114 "/>
<text text-anchor="start" x="1485.5" y="-98.8" font-family="Times,serif" font-size="14.00">from_table()</text>
<text text-anchor="start" x="1485.5" y="-83.8" font-family="Times,serif" font-size="14.00">new()</text>
</g>
<!-- 12 -->
<g id="node7" class="node"><title>12</title>
<polygon fill="none" stroke="black" points="429.5,-83 429.5,-153 620.5,-153 620.5,-83 429.5,-83"/>
<text text-anchor="middle" x="525" y="-137.8" font-family="Times,serif" font-size="14.00">vice.plugins.ActionMeta</text>
<polyline fill="none" stroke="black" points="429.5,-130 620.5,-130 "/>
<polyline fill="none" stroke="black" points="429.5,-106 620.5,-106 "/>
<text text-anchor="middle" x="525" y="-90.8" font-family="Times,serif" font-size="14.00"> </text>
</g>
<!-- 12&#45;&gt;6 -->
<g id="edge6" class="edge"><title>12&#45;&gt;6</title>
<path fill="none" stroke="black" d="M496.346,-153.018C459.876,-196.315 396.886,-271.096 357.437,-317.929"/>
<polygon fill="none" stroke="black" points="354.602,-315.862 350.837,-325.765 359.956,-320.372 354.602,-315.862"/>
</g>
<!-- 13 -->
<g id="node8" class="node"><title>13</title>
<polygon fill="none" stroke="black" points="1661,-75.5 1661,-160.5 1815,-160.5 1815,-75.5 1661,-75.5"/>
<text text-anchor="middle" x="1738" y="-145.3" font-family="Times,serif" font-size="14.00">vice.plugins.Action</text>
<polyline fill="none" stroke="black" points="1661,-137.5 1815,-137.5 "/>
<polyline fill="none" stroke="black" points="1661,-113.5 1815,-113.5 "/>
<text text-anchor="start" x="1669" y="-98.3" font-family="Times,serif" font-size="14.00">new()</text>
<text text-anchor="start" x="1669" y="-83.3" font-family="Times,serif" font-size="14.00">plugins()</text>
</g>
<!-- 15 -->
<g id="node9" class="node"><title>15</title>
<polygon fill="none" stroke="black" points="1833.5,-83 1833.5,-153 1976.5,-153 1976.5,-83 1833.5,-83"/>
<text text-anchor="middle" x="1905" y="-137.8" font-family="Times,serif" font-size="14.00">vice.PropertyDict</text>
<polyline fill="none" stroke="black" points="1833.5,-130 1976.5,-130 "/>
<polyline fill="none" stroke="black" points="1833.5,-106 1976.5,-106 "/>
<text text-anchor="middle" x="1905" y="-90.8" font-family="Times,serif" font-size="14.00"> </text>
</g>
<!-- 19 -->
<g id="node10" class="node"><title>19</title>
<polygon fill="none" stroke="black" points="840,-326 840,-396 1088,-396 1088,-326 840,-326"/>
<text text-anchor="middle" x="964" y="-380.8" font-family="Times,serif" font-size="14.00">vice.plugins.rules.wtactics.Zone</text>
<polyline fill="none" stroke="black" points="840,-373 1088,-373 "/>
<polyline fill="none" stroke="black" points="840,-349 1088,-349 "/>
<text text-anchor="start" x="848" y="-333.8" font-family="Times,serif" font-size="14.00">constraints()</text>
</g>
<!-- 19&#45;&gt;8 -->
<g id="edge8" class="edge"><title>19&#45;&gt;8</title>
<path fill="none" stroke="black" d="M1008.15,-396.128C1034.64,-416.6 1068.96,-443.126 1099.26,-466.545"/>
<polygon fill="none" stroke="black" points="1097.22,-469.396 1107.27,-472.742 1101.5,-463.858 1097.22,-469.396"/>
</g>
<!-- 20 -->
<g id="node11" class="node"><title>20</title>
<polygon fill="none" stroke="black" points="1106,-326 1106,-396 1390,-396 1390,-326 1106,-326"/>
<text text-anchor="middle" x="1248" y="-380.8" font-family="Times,serif" font-size="14.00">vice.plugins.rules.wtactics.HeroZone</text>
<polyline fill="none" stroke="black" points="1106,-373 1390,-373 "/>
<polyline fill="none" stroke="black" points="1106,-349 1390,-349 "/>
<text text-anchor="start" x="1114" y="-333.8" font-family="Times,serif" font-size="14.00">constraints()</text>
</g>
<!-- 20&#45;&gt;8 -->
<g id="edge10" class="edge"><title>20&#45;&gt;8</title>
<path fill="none" stroke="black" d="M1231.48,-396.324C1222.04,-415.935 1209.96,-441.053 1199.07,-463.671"/>
<polygon fill="none" stroke="black" points="1195.83,-462.328 1194.65,-472.857 1202.14,-465.364 1195.83,-462.328"/>
</g>
<!-- 21 -->
<g id="node12" class="node"><title>21</title>
<polygon fill="none" stroke="black" points="638.5,-83 638.5,-153 955.5,-153 955.5,-83 638.5,-83"/>
<text text-anchor="middle" x="797" y="-137.8" font-family="Times,serif" font-size="14.00">vice.plugins.rules.wtactics.OffensiveZone</text>
<polyline fill="none" stroke="black" points="638.5,-130 955.5,-130 "/>
<polyline fill="none" stroke="black" points="638.5,-106 955.5,-106 "/>
<text text-anchor="start" x="646.5" y="-90.8" font-family="Times,serif" font-size="14.00">constraints()</text>
</g>
<!-- 21&#45;&gt;19 -->
<g id="edge12" class="edge"><title>21&#45;&gt;19</title>
<path fill="none" stroke="black" d="M820.573,-153.018C850.451,-196.136 901.966,-270.478 934.444,-317.347"/>
<polygon fill="none" stroke="black" points="931.705,-319.539 940.277,-325.765 937.458,-315.552 931.705,-319.539"/>
</g>
<!-- 22 -->
<g id="node13" class="node"><title>22</title>
<polygon fill="none" stroke="black" points="974,-83 974,-153 1288,-153 1288,-83 974,-83"/>
<text text-anchor="middle" x="1131" y="-137.8" font-family="Times,serif" font-size="14.00">vice.plugins.rules.wtactics.QuestingZone</text>
<polyline fill="none" stroke="black" points="974,-130 1288,-130 "/>
<polyline fill="none" stroke="black" points="974,-106 1288,-106 "/>
<text text-anchor="start" x="982" y="-90.8" font-family="Times,serif" font-size="14.00">constraints()</text>
</g>
<!-- 22&#45;&gt;19 -->
<g id="edge14" class="edge"><title>22&#45;&gt;19</title>
<path fill="none" stroke="black" d="M1107.43,-153.018C1077.55,-196.136 1026.03,-270.478 993.556,-317.347"/>
<polygon fill="none" stroke="black" points="990.542,-315.552 987.723,-325.765 996.295,-319.539 990.542,-315.552"/>
</g>
<!-- 24 -->
<g id="node14" class="node"><title>24</title>
<polygon fill="none" stroke="black" points="2017,-289 2017,-433 2203,-433 2203,-289 2017,-289"/>
<text text-anchor="middle" x="2110" y="-417.8" font-family="Times,serif" font-size="14.00">vice.database.Database</text>
<polyline fill="none" stroke="black" points="2017,-410 2203,-410 "/>
<text text-anchor="start" x="2025" y="-394.8" font-family="Times,serif" font-size="14.00">engine : NoneType</text>
<text text-anchor="start" x="2025" y="-379.8" font-family="Times,serif" font-size="14.00">metadata</text>
<polyline fill="none" stroke="black" points="2017,-372 2203,-372 "/>
<text text-anchor="start" x="2025" y="-356.8" font-family="Times,serif" font-size="14.00">tables()</text>
<text text-anchor="start" x="2025" y="-341.8" font-family="Times,serif" font-size="14.00">connect()</text>
<text text-anchor="start" x="2025" y="-326.8" font-family="Times,serif" font-size="14.00">create_record()</text>
<text text-anchor="start" x="2025" y="-311.8" font-family="Times,serif" font-size="14.00">select()</text>
<text text-anchor="start" x="2025" y="-296.8" font-family="Times,serif" font-size="14.00">create_table()</text>
</g>
<!-- 25 -->
<g id="node15" class="node"><title>25</title>
<polygon fill="none" stroke="black" points="1995,-1 1995,-235 2225,-235 2225,-1 1995,-1"/>
<text text-anchor="middle" x="2110" y="-219.8" font-family="Times,serif" font-size="14.00">sqlalchemy.schema.MetaData</text>
<polyline fill="none" stroke="black" points="1995,-212 2225,-212 "/>
<text text-anchor="start" x="2003" y="-196.8" font-family="Times,serif" font-size="14.00">tables : immutabledict</text>
<text text-anchor="start" x="2003" y="-181.8" font-family="Times,serif" font-size="14.00">bind : NoneType</text>
<text text-anchor="start" x="2003" y="-166.8" font-family="Times,serif" font-size="14.00">quote_schema : NoneType</text>
<text text-anchor="start" x="2003" y="-151.8" font-family="Times,serif" font-size="14.00">schema : NoneType</text>
<polyline fill="none" stroke="black" points="1995,-144 2225,-144 "/>
<text text-anchor="start" x="2003" y="-128.8" font-family="Times,serif" font-size="14.00">is_bound()</text>
<text text-anchor="start" x="2003" y="-113.8" font-family="Times,serif" font-size="14.00">bind()</text>
<text text-anchor="start" x="2003" y="-98.8" font-family="Times,serif" font-size="14.00">remove()</text>
<text text-anchor="start" x="2003" y="-83.8" font-family="Times,serif" font-size="14.00">reflect()</text>
<text text-anchor="start" x="2003" y="-68.8" font-family="Times,serif" font-size="14.00">clear()</text>
<text text-anchor="start" x="2003" y="-53.8" font-family="Times,serif" font-size="14.00">create_all()</text>
<text text-anchor="start" x="2003" y="-38.8" font-family="Times,serif" font-size="14.00">sorted_tables()</text>
<text text-anchor="start" x="2003" y="-23.8" font-family="Times,serif" font-size="14.00">append_ddl_listener()</text>
<text text-anchor="start" x="2003" y="-8.8" font-family="Times,serif" font-size="14.00">drop_all()</text>
</g>
<!-- 25&#45;&gt;24 -->
<g id="edge16" class="edge"><title>25&#45;&gt;24</title>
<path fill="none" stroke="black" d="M2110,-235.264C2110,-249.272 2110,-263.356 2110,-276.759"/>
<polygon fill="black" stroke="black" points="2110,-276.853 2114,-282.853 2110,-288.853 2106,-282.853 2110,-276.853"/>
<text text-anchor="middle" x="2144" y="-258.3" font-family="Times,serif" font-size="14.00" fill="green">metadata</text>
</g>
</g>
</svg>
