<?xml version="1.0" encoding="UTF-8" standalone="no"?>
<!DOCTYPE svg PUBLIC "-//W3C//DTD SVG 1.1//EN"
 "http://www.w3.org/Graphics/SVG/1.1/DTD/svg11.dtd">
<!-- Generated by graphviz version 2.28.0 (20120524.1247)
 -->
<!-- Title: classes_ViCE Pages: 1 -->
<svg width="1761pt" height="442pt"
 viewBox="0.00 0.00 1761.00 442.00" xmlns="http://www.w3.org/2000/svg" xmlns:xlink="http://www.w3.org/1999/xlink">
<g id="graph1" class="graph" transform="scale(1 1) rotate(0) translate(4 438)">
<title>classes_ViCE</title>
<polygon fill="white" stroke="white" points="-4,5 -4,-438 1758,-438 1758,5 -4,5"/>
<!-- 6 -->
<g id="node1" class="node"><title>6</title>
<polygon fill="none" stroke="black" points="227,-326 227,-396 417,-396 417,-326 227,-326"/>
<text text-anchor="middle" x="322" y="-380.8" font-family="Times,serif" font-size="14.00">vice.plugins.PluginMeta</text>
<polyline fill="none" stroke="black" points="227,-373 417,-373 "/>
<polyline fill="none" stroke="black" points="227,-349 417,-349 "/>
<text text-anchor="middle" x="322" y="-333.8" font-family="Times,serif" font-size="14.00"> </text>
</g>
<!-- 7 -->
<g id="node2" class="node"><title>7</title>
<polygon fill="none" stroke="black" points="-0.5,-83 -0.5,-153 214.5,-153 214.5,-83 -0.5,-83"/>
<text text-anchor="middle" x="107" y="-137.8" font-family="Times,serif" font-size="14.00">vice.plugins.ContainerMeta</text>
<polyline fill="none" stroke="black" points="-0.5,-130 214.5,-130 "/>
<polyline fill="none" stroke="black" points="-0.5,-106 214.5,-106 "/>
<text text-anchor="middle" x="107" y="-90.8" font-family="Times,serif" font-size="14.00"> </text>
</g>
<!-- 7&#45;&gt;6 -->
<g id="edge2" class="edge"><title>7&#45;&gt;6</title>
<path fill="none" stroke="black" d="M137.348,-153.018C176.054,-196.405 242.963,-271.405 284.727,-318.219"/>
<polygon fill="none" stroke="black" points="282.19,-320.633 291.459,-325.765 287.413,-315.973 282.19,-320.633"/>
</g>
<!-- 8 -->
<g id="node3" class="node"><title>8</title>
<polygon fill="none" stroke="black" points="638.5,-68 638.5,-168 817.5,-168 817.5,-68 638.5,-68"/>
<text text-anchor="middle" x="728" y="-152.8" font-family="Times,serif" font-size="14.00">vice.plugins.Container</text>
<polyline fill="none" stroke="black" points="638.5,-145 817.5,-145 "/>
<polyline fill="none" stroke="black" points="638.5,-121 817.5,-121 "/>
<text text-anchor="start" x="646.5" y="-105.8" font-family="Times,serif" font-size="14.00">new()</text>
<text text-anchor="start" x="646.5" y="-90.8" font-family="Times,serif" font-size="14.00">insert()</text>
<text text-anchor="start" x="646.5" y="-75.8" font-family="Times,serif" font-size="14.00">constraints()</text>
</g>
<!-- 9 -->
<g id="node4" class="node"><title>9</title>
<polygon fill="none" stroke="black" points="835.5,-83 835.5,-153 988.5,-153 988.5,-83 835.5,-83"/>
<text text-anchor="middle" x="912" y="-137.8" font-family="Times,serif" font-size="14.00">vice.plugins.Plugin</text>
<polyline fill="none" stroke="black" points="835.5,-130 988.5,-130 "/>
<polyline fill="none" stroke="black" points="835.5,-106 988.5,-106 "/>
<text text-anchor="start" x="843.5" y="-90.8" font-family="Times,serif" font-size="14.00">plugins()</text>
</g>
<!-- 10 -->
<g id="node5" class="node"><title>10</title>
<polygon fill="none" stroke="black" points="233,-83 233,-153 411,-153 411,-83 233,-83"/>
<text text-anchor="middle" x="322" y="-137.8" font-family="Times,serif" font-size="14.00">vice.plugins.ItemMeta</text>
<polyline fill="none" stroke="black" points="233,-130 411,-130 "/>
<polyline fill="none" stroke="black" points="233,-106 411,-106 "/>
<text text-anchor="middle" x="322" y="-90.8" font-family="Times,serif" font-size="14.00"> </text>
</g>
<!-- 10&#45;&gt;6 -->
<g id="edge4" class="edge"><title>10&#45;&gt;6</title>
<path fill="none" stroke="black" d="M322,-153.018C322,-195.599 322,-268.632 322,-315.584"/>
<polygon fill="none" stroke="black" points="318.5,-315.765 322,-325.765 325.5,-315.765 318.5,-315.765"/>
</g>
<!-- 11 -->
<g id="node6" class="node"><title>11</title>
<polygon fill="none" stroke="black" points="1006.5,-76 1006.5,-160 1171.5,-160 1171.5,-76 1006.5,-76"/>
<text text-anchor="middle" x="1089" y="-144.8" font-family="Times,serif" font-size="14.00">vice.plugins.Item</text>
<polyline fill="none" stroke="black" points="1006.5,-137 1171.5,-137 "/>
<text text-anchor="start" x="1014.5" y="-121.8" font-family="Times,serif" font-size="14.00">ATTRIBUTES : tuple</text>
<polyline fill="none" stroke="black" points="1006.5,-114 1171.5,-114 "/>
<text text-anchor="start" x="1014.5" y="-98.8" font-family="Times,serif" font-size="14.00">from_table()</text>
<text text-anchor="start" x="1014.5" y="-83.8" font-family="Times,serif" font-size="14.00">new()</text>
</g>
<!-- 12 -->
<g id="node7" class="node"><title>12</title>
<polygon fill="none" stroke="black" points="429.5,-83 429.5,-153 620.5,-153 620.5,-83 429.5,-83"/>
<text text-anchor="middle" x="525" y="-137.8" font-family="Times,serif" font-size="14.00">vice.plugins.ActionMeta</text>
<polyline fill="none" stroke="black" points="429.5,-130 620.5,-130 "/>
<polyline fill="none" stroke="black" points="429.5,-106 620.5,-106 "/>
<text text-anchor="middle" x="525" y="-90.8" font-family="Times,serif" font-size="14.00"> </text>
</g>
<!-- 12&#45;&gt;6 -->
<g id="edge6" class="edge"><title>12&#45;&gt;6</title>
<path fill="none" stroke="black" d="M496.346,-153.018C459.876,-196.315 396.886,-271.096 357.437,-317.929"/>
<polygon fill="none" stroke="black" points="354.602,-315.862 350.837,-325.765 359.956,-320.372 354.602,-315.862"/>
</g>
<!-- 13 -->
<g id="node8" class="node"><title>13</title>
<polygon fill="none" stroke="black" points="1190,-75.5 1190,-160.5 1344,-160.5 1344,-75.5 1190,-75.5"/>
<text text-anchor="middle" x="1267" y="-145.3" font-family="Times,serif" font-size="14.00">vice.plugins.Action</text>
<polyline fill="none" stroke="black" points="1190,-137.5 1344,-137.5 "/>
<polyline fill="none" stroke="black" points="1190,-113.5 1344,-113.5 "/>
<text text-anchor="start" x="1198" y="-98.3" font-family="Times,serif" font-size="14.00">new()</text>
<text text-anchor="start" x="1198" y="-83.3" font-family="Times,serif" font-size="14.00">plugins()</text>
</g>
<!-- 15 -->
<g id="node9" class="node"><title>15</title>
<polygon fill="none" stroke="black" points="1362.5,-83 1362.5,-153 1505.5,-153 1505.5,-83 1362.5,-83"/>
<text text-anchor="middle" x="1434" y="-137.8" font-family="Times,serif" font-size="14.00">vice.PropertyDict</text>
<polyline fill="none" stroke="black" points="1362.5,-130 1505.5,-130 "/>
<polyline fill="none" stroke="black" points="1362.5,-106 1505.5,-106 "/>
<text text-anchor="middle" x="1434" y="-90.8" font-family="Times,serif" font-size="14.00"> </text>
</g>
<!-- 20 -->
<g id="node10" class="node"><title>20</title>
<polygon fill="none" stroke="black" points="1546,-289 1546,-433 1732,-433 1732,-289 1546,-289"/>
<text text-anchor="middle" x="1639" y="-417.8" font-family="Times,serif" font-size="14.00">vice.database.Database</text>
<polyline fill="none" stroke="black" points="1546,-410 1732,-410 "/>
<text text-anchor="start" x="1554" y="-394.8" font-family="Times,serif" font-size="14.00">engine : NoneType</text>
<text text-anchor="start" x="1554" y="-379.8" font-family="Times,serif" font-size="14.00">metadata</text>
<polyline fill="none" stroke="black" points="1546,-372 1732,-372 "/>
<text text-anchor="start" x="1554" y="-356.8" font-family="Times,serif" font-size="14.00">tables()</text>
<text text-anchor="start" x="1554" y="-341.8" font-family="Times,serif" font-size="14.00">connect()</text>
<text text-anchor="start" x="1554" y="-326.8" font-family="Times,serif" font-size="14.00">create_record()</text>
<text text-anchor="start" x="1554" y="-311.8" font-family="Times,serif" font-size="14.00">select()</text>
<text text-anchor="start" x="1554" y="-296.8" font-family="Times,serif" font-size="14.00">create_table()</text>
</g>
<!-- 21 -->
<g id="node11" class="node"><title>21</title>
<polygon fill="none" stroke="black" points="1524,-1 1524,-235 1754,-235 1754,-1 1524,-1"/>
<text text-anchor="middle" x="1639" y="-219.8" font-family="Times,serif" font-size="14.00">sqlalchemy.schema.MetaData</text>
<polyline fill="none" stroke="black" points="1524,-212 1754,-212 "/>
<text text-anchor="start" x="1532" y="-196.8" font-family="Times,serif" font-size="14.00">tables : immutabledict</text>
<text text-anchor="start" x="1532" y="-181.8" font-family="Times,serif" font-size="14.00">bind : NoneType</text>
<text text-anchor="start" x="1532" y="-166.8" font-family="Times,serif" font-size="14.00">quote_schema : NoneType</text>
<text text-anchor="start" x="1532" y="-151.8" font-family="Times,serif" font-size="14.00">schema : NoneType</text>
<polyline fill="none" stroke="black" points="1524,-144 1754,-144 "/>
<text text-anchor="start" x="1532" y="-128.8" font-family="Times,serif" font-size="14.00">is_bound()</text>
<text text-anchor="start" x="1532" y="-113.8" font-family="Times,serif" font-size="14.00">bind()</text>
<text text-anchor="start" x="1532" y="-98.8" font-family="Times,serif" font-size="14.00">remove()</text>
<text text-anchor="start" x="1532" y="-83.8" font-family="Times,serif" font-size="14.00">reflect()</text>
<text text-anchor="start" x="1532" y="-68.8" font-family="Times,serif" font-size="14.00">clear()</text>
<text text-anchor="start" x="1532" y="-53.8" font-family="Times,serif" font-size="14.00">create_all()</text>
<text text-anchor="start" x="1532" y="-38.8" font-family="Times,serif" font-size="14.00">sorted_tables()</text>
<text text-anchor="start" x="1532" y="-23.8" font-family="Times,serif" font-size="14.00">append_ddl_listener()</text>
<text text-anchor="start" x="1532" y="-8.8" font-family="Times,serif" font-size="14.00">drop_all()</text>
</g>
<!-- 21&#45;&gt;20 -->
<g id="edge8" class="edge"><title>21&#45;&gt;20</title>
<path fill="none" stroke="black" d="M1639,-235.264C1639,-249.272 1639,-263.356 1639,-276.759"/>
<polygon fill="black" stroke="black" points="1639,-276.853 1643,-282.853 1639,-288.853 1635,-282.853 1639,-276.853"/>
<text text-anchor="middle" x="1673" y="-258.3" font-family="Times,serif" font-size="14.00" fill="green">metadata</text>
</g>
</g>
</svg>
